<svg width="793" height="422" viewBox="0 0 793 422" fill="none" xmlns="http://www.w3.org/2000/svg">
<path d="M754.429 0.77296C765.449 0.0589598 786.289 -2.71906 791.375 9.60194C794.722 17.5449 791.289 29.008 787.88 36.709C779.341 53.426 767.833 70.8309 754.333 87.8859L692.129 90.4379L735.114 110.464C700.588 148.311 657.924 181.902 618.862 198.815C583.504 214.129 530.982 194.646 498.223 180.25C485.391 174.519 472.74 168.381 460.295 161.848C472.349 178.813 481.838 194.376 476.851 213.126C500.67 219.719 523.262 230.313 545.101 241.932C587.378 264.425 621.733 288.79 672.337 285.115C713.392 282.133 748.961 261.056 775.481 230.112C756.393 282.487 709.532 321.072 664.729 351.96C652.853 360.146 639.565 367.188 627.335 375.1C625.566 361.65 624.688 364.79 621.245 350.114C616.431 363.355 615.922 363.206 607.736 373.953C592.687 393.712 573.274 402.31 551.634 407.242C561.182 384.239 558.808 381.525 555.548 356.739C539.444 413.362 518.984 424.903 453.276 421.299C444.107 420.799 436.092 418.434 427.269 416.108C439.939 409.911 442.064 406.464 452.657 394.984C460.602 386.375 467.126 378.456 481.758 347.84C452.153 367.257 435.805 371.954 403.144 381.339L402.787 381.441C357.749 394.381 339.63 370.725 329.241 330.859C329.749 332.755 349.07 328.251 349.07 328.251C382.507 316.47 399.83 296.569 399.866 296.527C399.773 296.547 382.08 300.342 353.686 290.499C342.184 286.512 336.428 286.634 338.707 273.113C341.199 258.356 358.611 240.183 370.269 231.062C335.482 217.699 310.362 199.603 287.838 171.226C264.457 190.968 234.563 202.72 202.245 201.669C168.631 200.575 146.277 200.622 116.449 219.878C117.575 211.14 117.529 202.47 119.74 193.628C129.506 154.575 146.053 123.043 169.592 91.0369C153.028 88.4319 136.279 87.1719 119.511 87.2659C68.3255 90.4619 23.0505 120.762 5.59053 169.307C4.26453 172.993 3.62654 176.463 3.02054 180.305C1.00254 170.166 -1.43546 158.565 1.05554 148.365C6.89154 124.467 15.8265 106.735 36.5435 93.321C83.2815 63.062 131.814 70.1589 182.64 80.0889C190.338 72.1409 198.123 65.149 206.122 59.019C202.099 55.633 197.989 52.349 193.797 49.17C151.241 20.55 96.8765 17.031 53.4745 44.919C50.1785 47.037 47.5595 49.4019 44.7405 52.0809C49.3105 42.8089 54.4375 32.1189 62.6225 25.5429C81.8005 10.1339 99.6825 1.50394 124.285 3.47294C164.006 6.65094 192.809 25.572 218.543 50.302C243.084 34.611 270.097 26.131 302.94 22.428C310.016 21.533 323.321 21.9769 330.827 22.0719C336.666 39.0929 338.188 61.9829 336.125 81.2219C352.128 76.5659 368.738 72.3569 382.042 68.6379C503.521 34.6759 628.377 8.95096 754.429 0.77296ZM216.704 93.13C194.497 95.746 168.032 132.657 160.035 151.654C166.443 151.493 171.862 150.539 177.982 148.799C192.349 145.876 237.064 129.176 238.671 109.444C239.617 97.8049 227.029 93.655 216.704 93.13Z" fill="#FFC300"/>
</svg>
